<?xml version="1.0" encoding="utf-8"?>
<!-- Generator: Adobe Illustrator 19.2.1, SVG Export Plug-In . SVG Version: 6.00 Build 0)  -->
<svg version="1.1" id="Layer_1" xmlns="http://www.w3.org/2000/svg" xmlns:xlink="http://www.w3.org/1999/xlink" x="0px" y="0px"
	 viewBox="0 0 180 180" style="enable-background:new 0 0 180 180;" xml:space="preserve">
<style type="text/css">
	.st0{fill:#103482;}
	.st1{fill:#FFFFFF;}
</style>
<rect class="st0" width="180" height="180"/>
<g id="Lozenge">
	<g>
		<path class="st1" d="M133.1,72.4c0,0-0.9-6.1-3.5-8.7c-3.3-3.5-7.1-3.5-8.8-3.7C108.5,59,90,59,90,59h0c0,0-18.5,0-30.8,0.9
			c-1.7,0.2-5.5,0.2-8.8,3.7c-2.6,2.7-3.5,8.7-3.5,8.7S46,79.5,46,86.6v6.7c0,7.1,0.9,14.2,0.9,14.2s0.9,6.1,3.5,8.7
			c3.3,3.5,7.7,3.4,9.7,3.8c7,0.7,29.9,0.9,29.9,0.9s18.5,0,30.8-0.9c1.7-0.2,5.5-0.2,8.8-3.7c2.6-2.7,3.5-8.7,3.5-8.7
			s0.9-7.1,0.9-14.2v-6.7C134,79.5,133.1,72.4,133.1,72.4z M80.9,101.4l0-24.7l23.8,12.4L80.9,101.4z"/>
	</g>
</g>
</svg>
