<?xml version="1.0" encoding="utf-8"?>
<!-- Generator: Adobe Illustrator 19.2.1, SVG Export Plug-In . SVG Version: 6.00 Build 0)  -->
<svg version="1.1" id="Layer_1" xmlns="http://www.w3.org/2000/svg" xmlns:xlink="http://www.w3.org/1999/xlink" x="0px" y="0px"
	 viewBox="0 0 180 180" style="enable-background:new 0 0 180 180;" xml:space="preserve">
<style type="text/css">
	.st0{fill:#103482;}
	.st1{fill:#FFFFFF;}
</style>
<rect y="0" class="st0" width="180" height="180"/>
<path class="st1" d="M138.9,59.7c-3.6,1.7-7.5,2.7-11.5,3.1c4.2-2.5,7.3-6.5,8.8-11.1c-3.8,2.3-8.2,4-12.8,4.8
	c-3.5-4-8.8-6.3-14.7-6.3c-11.1,0-20.1,9-20.1,20.1c0,1.7,0.2,3.1,0.4,4.6C72.7,74,58,66,48,53.8c-1.7,3.1-2.5,6.5-2.5,10.3
	c0,6.9,3.6,13,9,16.8c-3.4,0-6.3-1-9-2.5v0.2c0,9.6,6.9,17.8,16.1,19.7c-2.1,0.2-3.8,0.6-5.7,0.6c-1.3,0-2.5-0.2-3.8-0.4
	c2.5,8,9.9,13.8,18.7,13.8c-6.9,5.4-15.5,8.6-24.9,8.6c-1.7,0-3.1,0-4.8-0.2c8.8,5.6,19.5,9,30.8,9c36.9,0,57-30.6,57-57
	c0-0.8,0-1.7,0-2.5C132.9,67.2,136.2,63.7,138.9,59.7z"/>
</svg>
