<svg id="Layer_1" data-name="Layer 1" xmlns="http://www.w3.org/2000/svg" width="78" height="78" viewBox="0 0 78 78"><title>marlin-quick-start-icon</title><circle cx="39" cy="39" r="39" style="fill:#1848b1"/><path d="M60.57,46.92c0-3.16-.89-6.74-2.13-7.95a57.18,57.18,0,0,0-1.28,6.59h-.78a57.58,57.58,0,0,1,1.31-9.68A21.74,21.74,0,0,0,46.15,25.8c-.5,6.78-1.92,10.59-2.81,12.1h-.71c.94-3.34,1.08-8.63,1.09-13.94a19.57,19.57,0,0,0-9.46,0c0,5.31.16,10.6,1.09,13.94h-.71c-.88-1.51-2.3-5.32-2.8-12.1A21.74,21.74,0,0,0,20.31,35.89a57.59,57.59,0,0,1,1.31,9.68h-.78A57.19,57.19,0,0,0,19.56,39c-1.25,1.21-2.13,4.79-2.13,7.95L14,48.44v2.18H64V48.44Z" style="fill:#fff"/></svg>