<svg id="Layer_1" data-name="Layer 1" xmlns="http://www.w3.org/2000/svg" width="78" height="78" viewBox="0 0 78 78"><title>marlin-quick-start-icon</title><circle cx="39" cy="39" r="39" style="fill:#1848b1"/><path d="M39.25,37.48A10.28,10.28,0,1,0,29.06,27.19,10.23,10.23,0,0,0,39.25,37.48ZM59,47.63l-5.51-.81-2.46-5-2.46,5-5.51.81,4,3.92-.94,5.54,2.44-1.3,2.48-1.32,2.48,1.32L56,57.09,55,51.55ZM47.6,45.46,49,42.66a16.07,16.07,0,0,0-9.73-3.28A16.34,16.34,0,0,0,23,55.79H44.84l.63-3.72L39.9,46.59Z" style="fill:#fff;fill-rule:evenodd"/></svg>