<?xml version="1.0" encoding="utf-8"?>
<!-- Generator: Adobe Illustrator 19.2.1, SVG Export Plug-In . SVG Version: 6.00 Build 0)  -->
<!DOCTYPE svg PUBLIC "-//W3C//DTD SVG 1.1//EN" "http://www.w3.org/Graphics/SVG/1.1/DTD/svg11.dtd">
<svg version="1.1" id="Layer_1" xmlns="http://www.w3.org/2000/svg" xmlns:xlink="http://www.w3.org/1999/xlink" x="0px" y="0px"
	 viewBox="0 0 556.3 232" style="enable-background:new 0 0 556.3 232;" xml:space="preserve">
<style type="text/css">
	.st0{fill:#FFFFFF;}
</style>
<g>
	<g>
		<g>
			<path class="st0" d="M187.3,201.7l-1.6-4.5h-7.2l-1.6,4.5h-3.3l6.8-17.4h3.6l6.8,17.4H187.3z M182.1,187l-2.8,7.7h5.6L182.1,187z
				"/>
			<path class="st0" d="M451.7,199c-1.2,1.7-3,3-5.7,3c-4.2,0-6.8-3.1-6.8-7.2c0-4.1,2.7-7.2,6.8-7.2c2.6,0,4.5,1.3,5.7,3.1
				l-2.2,1.5c-0.7-1.3-1.9-2.1-3.4-2.1c-2.4,0-3.9,2-3.9,4.6c0,2.7,1.5,4.7,3.9,4.7c1.6,0,2.7-0.8,3.4-2L451.7,199z"/>
			<path class="st0" d="M459.7,202c-4.3,0-7-3-7-7.2c0-4.2,2.7-7.2,7-7.2c4.3,0,7,3,7,7.2C466.7,199.1,464,202,459.7,202z
				 M459.7,190.2c-2.5,0-3.9,2-3.9,4.7c0,2.6,1.4,4.7,3.9,4.7c2.5,0,3.9-2,3.9-4.7C463.6,192.2,462.2,190.2,459.7,190.2z"/>
			<path class="st0" d="M469.1,201.7V188h2.9v2c1.1-1.5,2.5-2.3,4.3-2.3c2,0,3.4,0.9,4,2.6c1.2-1.7,2.9-2.6,4.8-2.6c3,0,4.6,2,4.6,5
				v9h-2.9v-8.4c0-1.5-0.4-3.1-2.6-3.1c-1.9,0-3.4,1.4-3.4,3.7v7.8H478v-8.4c0-1.5-0.4-3.1-2.6-3.1c-1.9,0-3.4,1.4-3.4,3.7v7.8
				H469.1z"/>
			<path class="st0" d="M495.7,188v2c1.3-1.7,2.9-2.3,4.7-2.3c3.9,0,6.3,3.1,6.3,7.2c0,4.1-2.4,7.2-6.3,7.2c-1.8,0-3.4-0.7-4.7-2.3
				v6.5h-2.9V188H495.7z M499.7,199.5c2.6,0,3.9-2.1,3.9-4.6c0-2.5-1.3-4.6-3.9-4.6c-2.6,0-4,2.1-4,4.6
				C495.7,197.4,497.1,199.5,499.7,199.5z"/>
			<path class="st0" d="M520.1,201.9c-1.3,0-2.5-0.6-2.8-2c-1.1,1.6-3,2.1-4.6,2.1c-2.8,0-4.7-1.5-4.7-4.2c0-3.4,3-3.9,5.4-4.2
				c2-0.2,3.5-0.4,3.5-1.7c0-1.4-1.5-1.8-2.8-1.8c-1.4,0-3,0.5-4.3,1.4l-1.2-2.2c1.7-1.1,3.5-1.7,5.7-1.7c3.2,0,5.5,1.3,5.5,4.6v6.3
				c0,0.9,0.3,1.3,1,1.3c0.3,0,0.6-0.1,0.8-0.2l0.3,2C521.5,201.8,520.7,201.9,520.1,201.9z M517,194.4c-0.8,1-2,1-3.4,1.2
				c-1.5,0.2-2.5,0.7-2.5,2.1c0,1.4,1.1,2,2.5,2c1.8,0,3.5-1,3.5-3.3V194.4z"/>
			<path class="st0" d="M523.6,201.7V188h2.9v2c1.1-1.5,2.6-2.3,4.5-2.3c3,0,4.7,2,4.7,5.1v9h-2.9v-8.3c0-1.5-0.5-3.1-2.7-3.1
				c-2,0-3.6,1.4-3.6,3.7v7.7H523.6z"/>
			<path class="st0" d="M545.5,202.3c-1.1,2.8-2.3,4.3-4.9,4.3c-1.2,0-2.2-0.3-3.1-0.9l1.2-2c0.5,0.3,1,0.6,1.6,0.6
				c1.1,0,1.7-0.8,2.2-1.8l0.4-0.8L537,188h3.3l3.9,9.9l3.5-9.9h3.1L545.5,202.3z"/>
		</g>
		<g>
			<g id="g12_8_" transform="translate(61.993919,137.66632)">
				<path id="path14_8_" class="st0" d="M154.3,45.7l-18.2,0V50l6.6,0v14h4.9l0-14l6.6,0V45.7z"/>
			</g>
			<g id="g16_8_" transform="translate(-40.000181,-77.333683)">
				<g>
					<g id="g18_8_">
						<g id="g24_8_" transform="translate(264.0283,113.707)">
							<path id="path26_8_" class="st0" d="M121.7,155c0-1.6-1.3-2.9-2.9-2.9h0h-6.4c-0.6,0-0.8,0.3-1.1,0.7c0,0-1.9,2.7-1.9,2.7
								h6.2c0.7,0,1.3,0.6,1.3,1.4v8.5h4.9V155L121.7,155"/>
						</g>
						<path id="path28_8_" class="st0" d="M368.5,261h4.9v18.2h-4.9V261z"/>
						<g id="g30_8_" transform="translate(346.2676,123.1367)">
							<path id="path32_8_" class="st0" d="M64.5,142.7H50.7v13.4h4.9v-9.9h5.6c0.8,0,1.4,0.6,1.4,1.4v8.5h4.9v-10.5
								C67.4,144,66.1,142.7,64.5,142.7"/>
						</g>
						<g id="g34_8_" transform="translate(119.0557,139.0889)">
							<path id="path36_8_" class="st0" d="M222.4,121.9H199v18.2h4.9v-14h5.2c0.5,0,0.9,0.4,0.9,0.9v13.1h4.9v-13.1
								c0-0.5,0.4-0.9,0.9-0.9h0h3.8c0.7,0,1.3,0.6,1.3,1.3v12.6h4.9v-14.9C225.8,123.4,224.3,121.9,222.4,121.9"/>
						</g>
						<g id="g38_8_" transform="translate(274.5376,108.9092)">
							<path id="path40_8_" class="st0" d="M114.4,161.3v9h4.9v-8.1v-5.1c0,0-2.3,1.4-3.8,2.4C114.8,159.9,114.4,160.5,114.4,161.3"
								/>
						</g>
						<g id="g42_8_" transform="translate(274.5376,139.1416)">
							<path id="path44_8_" class="st0" d="M114.4,121.8h4.9v3.4l-4.9,3.2V121.8z"/>
						</g>
						<g id="g46_8_" transform="translate(441.0674,123.1367)">
							<path id="path48_8_" class="st0" d="M-1.3,142.7c-1.2,0-2,0.9-2,1.9v11.4h4.9v-8.5c0-0.8,0.5-1.4,1.3-1.4h3.6
								c0.5,0,1-0.3,1.2-0.8c0,0,1.9-2.7,1.9-2.7H-1.3z"/>
						</g>
						<g id="g50_8_" transform="translate(407.9766,139.0889)">
							<path id="path52_8_" class="st0" d="M21.7,121.9v4.9v10h-7.1c-0.5,0-0.8-0.4-0.8-0.8v-4.4h0c0-0.8,0.6-1.4,1.4-1.4h3.6
								c0.5,0,1.1-0.3,1.3-0.7l1.6-2.8h-9.9c-1.6,0-2.9,1.3-2.9,2.9v0v8.1c0,1.5,1.2,2.4,2.4,2.4h15.3v-18.2H21.7z"/>
						</g>
						<g id="g54_8_" transform="translate(523.9531,123.1367)">
							<path id="path56_8_" class="st0" d="M-58.9,142.7h-11.2c-0.6,0-1.1,0.3-1.4,0.7l-1.9,2.8h11.3c0.7,0,1.3,0.6,1.3,1.4l0,5.3
								h-8.5v-1.5c0-0.3,0.2-0.5,0.5-0.5h5.9v-2c0-0.5-0.3-0.7-0.7-0.7h-8.2c-1,0-1.8,0.8-1.8,1.8v4.9c0,0,0,0,0,0.1
								c0.1,0.7,0.7,1.3,1.5,1.3h16v-10.5C-56.1,144-57.3,142.7-58.9,142.7"/>
						</g>
						<g id="g58_8_" transform="translate(188.3081,123.1367)">
							<path id="path60_8_" class="st0" d="M174.3,142.7h-11.2c-0.5,0-1.1,0.3-1.4,0.7l-1.9,2.8h11.3c0.7,0,1.3,0.6,1.3,1.4v5.3
								h-8.5v-1.5c0-0.3,0.2-0.5,0.5-0.5h5.9v-2c0-0.5-0.3-0.7-0.7-0.7h-8.2c-1,0-1.8,0.8-1.8,1.8v4.9c0,0,0,0,0,0.1
								c0.1,0.7,0.7,1.3,1.5,1.3h16v-10.5C177.2,144,175.9,142.7,174.3,142.7"/>
						</g>
						<g id="g62_8_" transform="translate(290.4902,188.8735)">
							<path id="path64_8_" class="st0" d="M23.4,79.8c0-1.6-1.3-2.9-2.9-2.9h0h-6.5c-0.6,0-0.8,0.3-1.1,0.7c0,0-1.9,2.7-1.9,2.7
								h6.3c0.7,0,1.3,0.6,1.3,1.4v8.5h4.9V79.8L23.4,79.8z M6,72.1h4.9v18.2H6V72.1z"/>
						</g>
						<g id="g66_8_" transform="translate(189.2935,170.334)">
							<path id="path68_8_" class="st0" d="M93.7,104L93.7,104c0,0.8,0.6,1.4,1.4,1.4l9.1,0v3.5H91.7c-1.6,0-2.9-1.3-2.9-2.9v0v-9.9
								v2.1c0-1.6,1.3-2.9,2.9-2.9h12.5l-0.8,1.9c-0.2,0.4-0.2,0.7-0.6,1c-0.3,0.2-0.5,0.3-0.8,0.3h-6.9c-0.8,0-1.4,0.6-1.4,1.4h0
								V104"/>
						</g>
						<g id="g70_8_" transform="translate(117.7144,155.0386)">
							<path id="path72_8_" class="st0" d="M143.4,124h10.4c0.5,0,1.1-0.3,1.4-0.7l1.9-2.8h-10.5c-0.7,0-1.3-0.6-1.3-1.4v-5.3h7.7
								v1.5c0,0.3-0.2,0.5-0.5,0.5h-5.1v2c0,0.5,0.3,0.7,0.7,0.7h7.4c1,0,1.8-0.8,1.8-1.8V112c0,0,0,0,0-0.1
								c-0.1-0.7-0.7-1.3-1.5-1.3h-13.4h-1.8v1.7v8.8C140.5,122.7,141.8,124,143.4,124"/>
						</g>
					</g>
				</g>
			</g>
		</g>
	</g>
</g>
<g>
	<path class="st0" d="M159,80l-14.3,2.4c-0.9-15.3-7.3-29.5-18.2-40.5C115.6,31,101.4,24.6,86.1,23.7l2.4-14.3L88.4,9H76.2l-0.1,0.4
		l2.4,14.3C47,25.6,21.8,50.9,19.9,82.4L5.6,80v12.3l14.3-2.4c0.9,15.3,7.3,29.5,18.2,40.5c10.9,10.9,25.2,17.3,40.5,18.2l-2.4,14.3
		l0.1,0.4h12.1l0.1-0.4l-2.4-14.3c15.3-0.9,29.5-7.3,40.5-18.2c10.9-10.9,17.3-25.2,18.2-40.5l14.3,2.4l0.4-0.1V80.1L159,80z
		 M136.7,88.6c-1.2,28.1-23.9,50.7-52,51.9l-2.4-14.6l-2.4,14.6c-13.6-0.6-26.4-6.2-36.1-15.9c-9.7-9.7-15.3-22.4-15.9-36.1
		l14.7-2.4l-14.7-2.4c0.6-13.6,6.2-26.4,15.9-36.1c9.7-9.7,22.4-15.3,36.1-15.9l2.4,14.7l2.4-14.7c13.6,0.6,26.4,6.2,36.1,15.9
		c9.7,9.7,15.3,22.4,15.9,36.1L122,86.1L136.7,88.6z"/>
	<g>
		<path class="st0" d="M54.5,70.3c13.8-5,18-5,22.8-4.9v32.8c0,8.5-1,13.7-2,18.2h14.6c-1.5-5.5-2-11.4-2-17.1V65.5
			c8.3,0,10.9,0.7,18.7,3.8l5-11H58.3L54.5,70.3z"/>
	</g>
	<g>
		<polygon class="st0" points="196.8,52.3 168.2,52.3 168.2,35.9 245.4,35.9 245.4,52.3 216.9,52.3 216.9,139.7 196.8,139.7 		"/>
		<path class="st0" d="M259.2,126.9c5.9,0,10.4-2.7,13.4-6.8c3.1-4.3,4-9.8,4-15.8h-8.3c-8.6,0-21.3,1.5-21.3,13.2
			C247.1,124.1,252.3,126.9,259.2,126.9 M236.8,67.1c7.4-3.6,17.4-5.8,25.6-5.8c22.5,0,31.7,9.7,31.7,32.2v9.8
			c0,7.7,0.1,13.5,0.3,19.2c0.1,5.8,0.4,11.1,0.9,17.1h-16.9c-0.7-4-0.7-9.1-0.9-11.4h-0.3c-4.4,8.5-14,13.2-22.7,13.2
			c-13,0-25.7-8.2-25.7-22.7c0-11.4,5.3-18.1,12.6-21.8c7.3-3.7,16.7-4.5,24.7-4.5h10.6c0-12.3-5.3-16.5-16.6-16.5
			c-8.1,0-16.3,3.3-22.7,8.3L236.8,67.1z"/>
		<path class="st0" d="M306.3,63.1h17v17.4h0.3c0.9-7.1,8.7-19.2,20.2-19.2c1.9,0,3.9,0,5.9,0.6V82c-1.7-1-5.1-1.6-8.6-1.6
			c-15.6,0-15.6,20.2-15.6,31.2v28.1h-19.2V63.1z"/>
		<path class="st0" d="M402.8,100.6c0-13.1-4.9-23.8-16-23.8c-13,0-17.2,12.5-17.2,24.2c0,10.4,5.3,23.2,16.3,23.2
			C397.9,124.2,402.8,113.4,402.8,100.6 M421.9,63.1v69.1c0,20.8-8,40.4-38.9,40.4c-7.6,0-16.3-1.2-25.5-5.2l1.6-16.9
			c5.9,3.3,15.4,6.7,21.4,6.7c21.2,0,22.2-16.5,22.2-29.7h-0.3c-3.6,6.5-12.2,12.2-22.9,12.2c-21.7,0-30-18.1-30-38.6
			c0-18.4,9.1-39.7,31.2-39.7c9.7,0,17.3,3.4,22.6,12.2h0.3V63.1H421.9z"/>
		<path class="st0" d="M480.7,93.9c-0.6-9.7-4.9-18-15.6-18c-10.7,0-16.2,7.7-17,18H480.7z M493.6,135.4c-7,4-15,6.1-25.3,6.1
			c-24.3,0-38.5-14.6-38.5-39.7c0-22.1,11.3-40.4,34.2-40.4c27.3,0,35,19.5,35,46.2h-50.9c0.9,12.3,9.2,19.3,21,19.3
			c9.3,0,17.3-3.6,24.5-7.7V135.4z"/>
		<path class="st0" d="M513.2,77.7H499V63.1h14.2V47.8l19.2-6.4v21.7h17v14.6h-17v35.7c0,6.5,1.7,12.6,9,12.6c3.4,0,6.7-0.7,8.7-2.1
			l0.6,15.8c-4,1.2-8.4,1.8-14.2,1.8c-15,0-23.3-9.7-23.3-24.8V77.7z"/>
	</g>
</g>
</svg>
