<?xml version="1.0" encoding="utf-8"?>
<!-- Generator: Adobe Illustrator 19.2.1, SVG Export Plug-In . SVG Version: 6.00 Build 0)  -->
<svg version="1.1" id="Layer_1" xmlns="http://www.w3.org/2000/svg" xmlns:xlink="http://www.w3.org/1999/xlink" x="0px" y="0px"
	 viewBox="0 0 180 180" style="enable-background:new 0 0 180 180;" xml:space="preserve">
<style type="text/css">
	.st0{fill:#103482;}
	.st1{fill:#FFFFFF;}
</style>
<rect class="st0" width="180" height="180"/>
<g>
	<polygon class="st1" points="67.3,131 50.3,131 50.3,76.2 67.3,76.2 67.3,131 	"/>
	<path class="st1" d="M58.8,68.7c-5.5,0-9.9-4.4-9.9-9.9c0-5.4,4.4-9.9,9.9-9.9c5.4,0,9.9,4.4,9.9,9.9
		C68.7,64.3,64.2,68.7,58.8,68.7z"/>
	<path class="st1" d="M131.1,131h-17v-26.6c0-6.4-0.1-14.5-8.8-14.5c-8.9,0-10.2,6.9-10.2,14.1V131H78V76.2h16.3v7.5h0.2
		c2.3-4.3,7.8-8.8,16.1-8.8c17.2,0,20.4,11.3,20.4,26.1L131.1,131L131.1,131z"/>
</g>
</svg>
